<svg width="58" height="16" viewBox="0 0 58 16" fill="none" xmlns="http://www.w3.org/2000/svg">
<g clip-path="url(#clip0_3426_7527)">
<path fill-rule="evenodd" clip-rule="evenodd" d="M8.0013 15.3333C12.0514 15.3333 15.3346 12.05 15.3346 7.99996C15.3346 3.94987 12.0514 0.666626 8.0013 0.666626C3.95121 0.666626 0.667969 3.94987 0.667969 7.99996C0.667969 12.05 3.95121 15.3333 8.0013 15.3333ZM7.79643 10.2228L10.595 6.54847L10.595 6.53009C10.8013 6.25952 10.7492 5.87293 10.4787 5.66663C10.2081 5.46032 9.82152 5.51241 9.6152 5.78298L7.30039 8.84491L6.3022 7.57115C6.0942 7.30396 5.70899 7.25598 5.4418 7.46398C5.17462 7.67198 5.12664 8.05719 5.33464 8.32438L6.82886 10.2289C6.94572 10.3768 7.12416 10.4626 7.31264 10.4616C7.50218 10.4611 7.68082 10.373 7.79643 10.2228Z" fill="#58DDC8"/>
</g>
<path d="M22.2628 12H20.2855L23.2983 3.27273H25.6761L28.6847 12H26.7074L24.5213 5.26705H24.4531L22.2628 12ZM22.1392 8.5696H26.8097V10.0099H22.1392V8.5696ZM32.3537 12.1278C31.6832 12.1278 31.1065 11.9858 30.6236 11.7017C30.1435 11.4148 29.7741 11.017 29.5156 10.5085C29.2599 10 29.1321 9.41477 29.1321 8.75284C29.1321 8.08239 29.2614 7.49432 29.5199 6.98864C29.7813 6.48011 30.152 6.08381 30.6321 5.79972C31.1122 5.51278 31.6832 5.36932 32.3452 5.36932C32.9162 5.36932 33.4162 5.47301 33.8452 5.6804C34.2741 5.88778 34.6136 6.17898 34.8636 6.55398C35.1136 6.92898 35.2514 7.36932 35.277 7.875H33.5639C33.5156 7.5483 33.3878 7.28551 33.1804 7.08665C32.9759 6.88494 32.7074 6.78409 32.375 6.78409C32.0938 6.78409 31.848 6.8608 31.6378 7.0142C31.4304 7.16477 31.2685 7.38494 31.152 7.67472C31.0355 7.96449 30.9773 8.31534 30.9773 8.72727C30.9773 9.14489 31.0341 9.5 31.1477 9.79261C31.2642 10.0852 31.4276 10.3082 31.6378 10.4616C31.848 10.6151 32.0938 10.6918 32.375 10.6918C32.5824 10.6918 32.7685 10.6491 32.9332 10.5639C33.1009 10.4787 33.2386 10.3551 33.3466 10.1932C33.4574 10.0284 33.5298 9.83097 33.5639 9.60085H35.277C35.2486 10.1009 35.1122 10.5412 34.8679 10.9219C34.6264 11.2997 34.2926 11.5952 33.8665 11.8082C33.4403 12.0213 32.9361 12.1278 32.3537 12.1278ZM39.9208 5.45455V6.81818H35.979V5.45455H39.9208ZM36.8739 3.88636H38.6893V9.98864C38.6893 10.1562 38.7148 10.2869 38.766 10.3807C38.8171 10.4716 38.8881 10.5355 38.979 10.5724C39.0728 10.6094 39.1808 10.6278 39.3029 10.6278C39.3881 10.6278 39.4734 10.6207 39.5586 10.6065C39.6438 10.5895 39.7092 10.5767 39.7546 10.5682L40.0401 11.919C39.9492 11.9474 39.8214 11.9801 39.6566 12.017C39.4918 12.0568 39.2915 12.081 39.0558 12.0895C38.6183 12.1065 38.2347 12.0483 37.9052 11.9148C37.5785 11.7812 37.3242 11.5739 37.1424 11.2926C36.9606 11.0114 36.8711 10.6562 36.8739 10.2273V3.88636ZM41.1033 12V5.45455H42.9187V12H41.1033ZM42.0153 4.6108C41.7454 4.6108 41.5138 4.52131 41.3207 4.34233C41.1303 4.16051 41.0352 3.94318 41.0352 3.69034C41.0352 3.44034 41.1303 3.22585 41.3207 3.04688C41.5138 2.86506 41.7454 2.77415 42.0153 2.77415C42.2852 2.77415 42.5153 2.86506 42.7056 3.04688C42.8988 3.22585 42.9954 3.44034 42.9954 3.69034C42.9954 3.94318 42.8988 4.16051 42.7056 4.34233C42.5153 4.52131 42.2852 4.6108 42.0153 4.6108ZM50.4751 5.45455L48.1868 12H46.1413L43.853 5.45455H45.7706L47.13 10.1378H47.1982L48.5533 5.45455H50.4751ZM54.1761 12.1278C53.5028 12.1278 52.9233 11.9915 52.4375 11.7188C51.9545 11.4432 51.5824 11.054 51.321 10.5511C51.0597 10.0455 50.929 9.44744 50.929 8.7571C50.929 8.08381 51.0597 7.4929 51.321 6.98438C51.5824 6.47585 51.9503 6.07955 52.4247 5.79545C52.902 5.51136 53.4616 5.36932 54.1037 5.36932C54.5355 5.36932 54.9375 5.43892 55.3097 5.57812C55.6847 5.71449 56.0114 5.92045 56.2898 6.19602C56.571 6.47159 56.7898 6.81818 56.946 7.2358C57.1023 7.65057 57.1804 8.13636 57.1804 8.69318V9.19176H51.6534V8.06676H55.4716C55.4716 7.8054 55.4148 7.57386 55.3011 7.37216C55.1875 7.17045 55.0298 7.01278 54.8281 6.89915C54.6293 6.78267 54.3977 6.72443 54.1335 6.72443C53.858 6.72443 53.6136 6.78835 53.4006 6.91619C53.1903 7.04119 53.0256 7.21023 52.9062 7.4233C52.7869 7.63352 52.7259 7.8679 52.723 8.12642V9.19602C52.723 9.51989 52.7827 9.79972 52.902 10.0355C53.0241 10.2713 53.196 10.4531 53.4176 10.581C53.6392 10.7088 53.902 10.7727 54.206 10.7727C54.4077 10.7727 54.5923 10.7443 54.7599 10.6875C54.9276 10.6307 55.071 10.5455 55.1903 10.4318C55.3097 10.3182 55.4006 10.179 55.4631 10.0142L57.142 10.125C57.0568 10.5284 56.8821 10.8807 56.6179 11.1818C56.3565 11.4801 56.0185 11.7131 55.6037 11.8807C55.1918 12.0455 54.7159 12.1278 54.1761 12.1278Z" fill="#58DDC8"/>
<defs>
<clipPath id="clip0_3426_7527">
<rect width="16" height="16" fill="white"/>
</clipPath>
</defs>
</svg>
