<svg
    xmlns="http://www.w3.org/2000/svg"
    viewBox="0 0 24 24"
    id="vector">
    <path
        id="path"
        d="M 0 24 L 0 0 L 24 0 L 24 24 L 0 24 Z"
        fill="#ffffff"
        fill-opacity="0.01"
        stroke-opacity="0.01"
        fill-rule="evenodd"/>
    <path
        id="path_1"
        d="M 12 4.15 L 5 8.09 L 5 8.23 C 5.003 12.976 7.564 17.352 11.7 19.68 L 12 19.85 L 12.3 19.68 C 16.436 17.352 18.997 12.976 19 8.23 L 19 8.09 L 12 4.15 Z M 12 21.85 C 11.651 21.855 11.306 21.769 11 21.6 L 10.7 21.43 C 5.943 18.738 3.001 13.696 3 8.23 L 3 8.09 C 2.994 7.369 3.376 6.7 4 6.34 L 11 2.4 C 11.619 2.043 12.381 2.043 13 2.4 L 20 6.34 C 20.624 6.7 21.006 7.369 21 8.09 L 21 8.23 C 20.995 13.7 18.045 18.744 13.28 21.43 L 12.98 21.6 C 12.68 21.766 12.343 21.852 12 21.85 L 12 21.85 Z"
        fill="#ffffff"
        fill-rule="evenodd"/>
</svg>
