<svg width="70" height="24" viewBox="0 0 70 24" fill="none" xmlns="http://www.w3.org/2000/svg">
<rect width="70" height="24" rx="4" fill="#273442"/>
<g clip-path="url(#clip0_4168_53985)">
<path fill-rule="evenodd" clip-rule="evenodd" d="M14 17.5C17.0376 17.5 19.5 15.0376 19.5 12C19.5 8.96243 17.0376 6.5 14 6.5C10.9624 6.5 8.5 8.96243 8.5 12C8.5 15.0376 10.9624 17.5 14 17.5ZM13.8463 13.6671L15.9453 10.9114L15.9453 10.8976C16.1 10.6947 16.0609 10.4047 15.858 10.25C15.6551 10.0953 15.3652 10.1343 15.2104 10.3373L13.4743 12.6337L12.7257 11.6784C12.5697 11.478 12.2808 11.442 12.0804 11.598C11.88 11.754 11.844 12.0429 12 12.2433L13.1207 13.6717C13.2083 13.7826 13.3421 13.847 13.4835 13.8462C13.6257 13.8459 13.7596 13.7798 13.8463 13.6671Z" fill="#58DDC8"/>
</g>
<path d="M26.2628 16H24.2855L27.2983 7.27273H29.6761L32.6847 16H30.7074L28.5213 9.26705H28.4531L26.2628 16ZM26.1392 12.5696H30.8097V14.0099H26.1392V12.5696ZM36.3537 16.1278C35.6832 16.1278 35.1065 15.9858 34.6236 15.7017C34.1435 15.4148 33.7741 15.017 33.5156 14.5085C33.2599 14 33.1321 13.4148 33.1321 12.7528C33.1321 12.0824 33.2614 11.4943 33.5199 10.9886C33.7813 10.4801 34.152 10.0838 34.6321 9.79972C35.1122 9.51278 35.6832 9.36932 36.3452 9.36932C36.9162 9.36932 37.4162 9.47301 37.8452 9.6804C38.2741 9.88778 38.6136 10.179 38.8636 10.554C39.1136 10.929 39.2514 11.3693 39.277 11.875H37.5639C37.5156 11.5483 37.3878 11.2855 37.1804 11.0866C36.9759 10.8849 36.7074 10.7841 36.375 10.7841C36.0938 10.7841 35.848 10.8608 35.6378 11.0142C35.4304 11.1648 35.2685 11.3849 35.152 11.6747C35.0355 11.9645 34.9773 12.3153 34.9773 12.7273C34.9773 13.1449 35.0341 13.5 35.1477 13.7926C35.2642 14.0852 35.4276 14.3082 35.6378 14.4616C35.848 14.6151 36.0938 14.6918 36.375 14.6918C36.5824 14.6918 36.7685 14.6491 36.9332 14.5639C37.1009 14.4787 37.2386 14.3551 37.3466 14.1932C37.4574 14.0284 37.5298 13.831 37.5639 13.6009H39.277C39.2486 14.1009 39.1122 14.5412 38.8679 14.9219C38.6264 15.2997 38.2926 15.5952 37.8665 15.8082C37.4403 16.0213 36.9361 16.1278 36.3537 16.1278ZM43.9208 9.45455V10.8182H39.979V9.45455H43.9208ZM40.8739 7.88636H42.6893V13.9886C42.6893 14.1562 42.7148 14.2869 42.766 14.3807C42.8171 14.4716 42.8881 14.5355 42.979 14.5724C43.0728 14.6094 43.1808 14.6278 43.3029 14.6278C43.3881 14.6278 43.4734 14.6207 43.5586 14.6065C43.6438 14.5895 43.7092 14.5767 43.7546 14.5682L44.0401 15.919C43.9492 15.9474 43.8214 15.9801 43.6566 16.017C43.4918 16.0568 43.2915 16.081 43.0558 16.0895C42.6183 16.1065 42.2347 16.0483 41.9052 15.9148C41.5785 15.7812 41.3242 15.5739 41.1424 15.2926C40.9606 15.0114 40.8711 14.6562 40.8739 14.2273V7.88636ZM45.1033 16V9.45455H46.9187V16H45.1033ZM46.0153 8.6108C45.7454 8.6108 45.5138 8.52131 45.3207 8.34233C45.1303 8.16051 45.0352 7.94318 45.0352 7.69034C45.0352 7.44034 45.1303 7.22585 45.3207 7.04688C45.5138 6.86506 45.7454 6.77415 46.0153 6.77415C46.2852 6.77415 46.5153 6.86506 46.7056 7.04688C46.8988 7.22585 46.9954 7.44034 46.9954 7.69034C46.9954 7.94318 46.8988 8.16051 46.7056 8.34233C46.5153 8.52131 46.2852 8.6108 46.0153 8.6108ZM54.4751 9.45455L52.1868 16H50.1413L47.853 9.45455H49.7706L51.13 14.1378H51.1982L52.5533 9.45455H54.4751ZM58.1761 16.1278C57.5028 16.1278 56.9233 15.9915 56.4375 15.7188C55.9545 15.4432 55.5824 15.054 55.321 14.5511C55.0597 14.0455 54.929 13.4474 54.929 12.7571C54.929 12.0838 55.0597 11.4929 55.321 10.9844C55.5824 10.4759 55.9503 10.0795 56.4247 9.79545C56.902 9.51136 57.4616 9.36932 58.1037 9.36932C58.5355 9.36932 58.9375 9.43892 59.3097 9.57812C59.6847 9.71449 60.0114 9.92045 60.2898 10.196C60.571 10.4716 60.7898 10.8182 60.946 11.2358C61.1023 11.6506 61.1804 12.1364 61.1804 12.6932V13.1918H55.6534V12.0668H59.4716C59.4716 11.8054 59.4148 11.5739 59.3011 11.3722C59.1875 11.1705 59.0298 11.0128 58.8281 10.8991C58.6293 10.7827 58.3977 10.7244 58.1335 10.7244C57.858 10.7244 57.6136 10.7884 57.4006 10.9162C57.1903 11.0412 57.0256 11.2102 56.9062 11.4233C56.7869 11.6335 56.7259 11.8679 56.723 12.1264V13.196C56.723 13.5199 56.7827 13.7997 56.902 14.0355C57.0241 14.2713 57.196 14.4531 57.4176 14.581C57.6392 14.7088 57.902 14.7727 58.206 14.7727C58.4077 14.7727 58.5923 14.7443 58.7599 14.6875C58.9276 14.6307 59.071 14.5455 59.1903 14.4318C59.3097 14.3182 59.4006 14.179 59.4631 14.0142L61.142 14.125C61.0568 14.5284 60.8821 14.8807 60.6179 15.1818C60.3565 15.4801 60.0185 15.7131 59.6037 15.8807C59.1918 16.0455 58.7159 16.1278 58.1761 16.1278Z" fill="#58DDC8"/>
<defs>
<clipPath id="clip0_4168_53985">
<rect width="12" height="12" fill="white" transform="translate(8 6)"/>
</clipPath>
</defs>
</svg>
