<svg
    xmlns="http://www.w3.org/2000/svg"
    viewBox="0 0 24 24"
    id="vector">
    <path
        id="path"
        d="M 12 13 C 11.735 13 11.48 13.105 11.293 13.293 C 11.105 13.48 11 13.735 11 14 L 11 17 C 11 17.265 11.105 17.52 11.293 17.707 C 11.48 17.895 11.735 18 12 18 C 12.265 18 12.52 17.895 12.707 17.707 C 12.895 17.52 13 17.265 13 17 L 13 14 C 13 13.735 12.895 13.48 12.707 13.293 C 12.52 13.105 12.265 13 12 13 Z M 17 9 L 17 7 C 17 5.674 16.473 4.402 15.536 3.465 C 14.598 2.527 13.326 2 12 2 C 10.674 2 9.402 2.527 8.464 3.465 C 7.527 4.402 7 5.674 7 7 L 7 9 C 6.204 9 5.441 9.316 4.879 9.879 C 4.316 10.441 4 11.204 4 12 L 4 19 C 4 19.796 4.316 20.559 4.879 21.121 C 5.441 21.684 6.204 22 7 22 L 17 22 C 17.796 22 18.559 21.684 19.121 21.121 C 19.684 20.559 20 19.796 20 19 L 20 12 C 20 11.204 19.684 10.441 19.121 9.879 C 18.559 9.316 17.796 9 17 9 Z M 9 7 C 9 6.204 9.316 5.441 9.879 4.879 C 10.441 4.316 11.204 4 12 4 C 12.796 4 13.559 4.316 14.121 4.879 C 14.684 5.441 15 6.204 15 7 L 15 9 L 9 9 L 9 7 Z M 18 19 C 18 19.265 17.895 19.52 17.707 19.707 C 17.52 19.895 17.265 20 17 20 L 7 20 C 6.735 20 6.48 19.895 6.293 19.707 C 6.105 19.52 6 19.265 6 19 L 6 12 C 6 11.735 6.105 11.48 6.293 11.293 C 6.48 11.105 6.735 11 7 11 L 17 11 C 17.265 11 17.52 11.105 17.707 11.293 C 17.895 11.48 18 11.735 18 12 L 18 19 Z"
        fill="#ffffff"/>
</svg>
