<svg
    xmlns="http://www.w3.org/2000/svg"
    viewBox="0 0 24 24"
    id="vector">
    <path
        id="path"
        d="M 1 23 L 1 1 L 23 1 L 23 23 L 1 23 Z"
        fill="#ffffff"
        fill-opacity="0.01"
        stroke-opacity="0.01"
        fill-rule="evenodd"/>
    <path
        id="path_1"
        d="M 5.826 15.805 L 6.948 14.683 C 7.308 14.325 7.51 13.839 7.51 13.332 L 7.51 8.889 C 7.511 7.591 8.073 6.356 9.051 5.502 C 10.016 4.628 11.317 4.221 12.609 4.389 C 14.884 4.759 16.539 6.747 16.49 9.051 L 16.49 13.332 C 16.487 13.838 16.686 14.324 17.042 14.683 L 18.174 15.805 L 5.826 15.805 Z M 13.903 18.032 C 13.793 18.982 12.955 19.678 12 19.611 C 11.045 19.678 10.207 18.982 10.097 18.032 L 10.097 17.708 L 13.903 17.708 L 13.903 18.032 Z M 20.105 15.054 L 18.393 13.332 L 18.393 9.089 C 18.44 5.831 16.077 3.037 12.856 2.544 C 11.027 2.303 9.184 2.861 7.796 4.076 C 6.408 5.291 5.61 7.045 5.607 8.889 L 5.607 13.332 L 3.895 15.054 C 3.455 15.501 3.325 16.168 3.566 16.747 C 3.807 17.326 4.371 17.704 4.998 17.708 L 8.195 17.708 L 8.195 18.032 C 8.287 20.042 9.989 21.599 12 21.513 C 14.011 21.599 15.713 20.042 15.805 18.032 L 15.805 17.708 L 19.002 17.708 C 19.629 17.704 20.193 17.326 20.434 16.747 C 20.674 16.168 20.545 15.501 20.105 15.054 L 20.105 15.054 Z"
        fill="#ffffff"
        fill-rule="evenodd"/>
</svg>
