<svg
    xmlns="http://www.w3.org/2000/svg"
    viewBox="0 0 22 21"
    id="vector">
    <defs>
        <clipPath id="clip_path">
            <path d="M 20.165 10.5 C 20.672 10.5 21.087 10.912 21.041 11.417 C 20.907 12.894 20.448 14.326 19.692 15.61 C 18.782 17.159 17.474 18.437 15.904 19.31 C 14.334 20.184 12.559 20.623 10.763 20.581 C 8.967 20.538 7.214 20.017 5.687 19.07 C 4.16 18.124 2.914 16.786 2.077 15.196 C 1.24 13.606 0.843 11.821 0.928 10.026 C 1.012 8.231 1.575 6.492 2.557 4.987 C 3.372 3.74 4.45 2.692 5.713 1.915 C 6.144 1.648 6.698 1.837 6.924 2.292 C 7.15 2.746 6.961 3.293 6.534 3.568 C 5.563 4.194 4.731 5.018 4.095 5.992 C 3.292 7.222 2.832 8.645 2.763 10.113 C 2.694 11.58 3.018 13.04 3.702 14.34 C 4.387 15.641 5.406 16.735 6.655 17.509 C 7.904 18.283 9.337 18.71 10.806 18.744 C 12.275 18.779 13.727 18.42 15.011 17.705 C 16.295 16.991 17.364 15.946 18.109 14.679 C 18.698 13.677 19.067 12.565 19.195 11.417 C 19.251 10.913 19.657 10.5 20.165 10.5 Z"/>
        </clipPath>
        <clipPath id="clip_path_1">
            <path d="M 8.111 1.803 C 7.951 1.321 8.211 0.797 8.705 0.682 C 9.465 0.504 10.244 0.415 11.025 0.417 C 11.532 0.418 11.904 0.871 11.856 1.376 C 11.809 1.881 11.36 2.246 10.853 2.255 C 10.326 2.265 9.802 2.325 9.286 2.434 C 8.79 2.539 8.271 2.284 8.111 1.803 Z"/>
        </clipPath>
        <clipPath id="clip_path_2">
            <path d="M 13.095 1.578 C 13.211 1.084 13.707 0.774 14.188 0.934 C 14.88 1.165 15.545 1.47 16.171 1.844 C 16.607 2.104 16.695 2.683 16.397 3.093 C 16.098 3.503 15.526 3.588 15.085 3.337 C 14.664 3.097 14.222 2.894 13.766 2.732 C 13.288 2.561 12.979 2.072 13.095 1.578 Z"/>
        </clipPath>
        <clipPath id="clip_path_3">
            <path d="M 17.387 3.927 C 17.74 3.564 18.325 3.553 18.656 3.938 C 19.287 4.675 19.809 5.499 20.205 6.385 C 20.412 6.848 20.152 7.373 19.672 7.537 C 19.192 7.701 18.675 7.442 18.458 6.983 C 18.168 6.366 17.802 5.788 17.368 5.262 C 17.046 4.87 17.033 4.291 17.387 3.927 Z"/>
        </clipPath>
    </defs>
    <g id="group">
        <path
            id="path"
            clip-path="url(#clip_path)"
            d="M 20.165 10.5 C 20.672 10.5 21.087 10.912 21.041 11.417 C 20.907 12.894 20.448 14.326 19.692 15.61 C 18.782 17.159 17.474 18.437 15.904 19.31 C 14.334 20.184 12.559 20.623 10.763 20.581 C 8.967 20.538 7.214 20.017 5.687 19.07 C 4.16 18.124 2.914 16.786 2.077 15.196 C 1.24 13.606 0.843 11.821 0.928 10.026 C 1.012 8.231 1.575 6.492 2.557 4.987 C 3.372 3.74 4.45 2.692 5.713 1.915 C 6.144 1.648 6.698 1.837 6.924 2.292 C 7.15 2.746 6.961 3.293 6.534 3.568 C 5.563 4.194 4.731 5.018 4.095 5.992 C 3.292 7.222 2.832 8.645 2.763 10.113 C 2.694 11.58 3.018 13.04 3.702 14.34 C 4.387 15.641 5.406 16.735 6.655 17.509 C 7.904 18.283 9.337 18.71 10.806 18.744 C 12.275 18.779 13.727 18.42 15.011 17.705 C 16.295 16.991 17.364 15.946 18.109 14.679 C 18.698 13.677 19.067 12.565 19.195 11.417 C 19.251 10.913 19.657 10.5 20.165 10.5 Z"
            fill="#d9d9d9"
            stroke="#ffffff"
            stroke-width="3.66663"/>
    </g>
    <g id="group_1">
        <path
            id="path_1"
            clip-path="url(#clip_path_1)"
            d="M 8.111 1.803 C 7.951 1.321 8.211 0.797 8.705 0.682 C 9.465 0.504 10.244 0.415 11.025 0.417 C 11.532 0.418 11.904 0.871 11.856 1.376 C 11.809 1.881 11.36 2.246 10.853 2.255 C 10.326 2.265 9.802 2.325 9.286 2.434 C 8.79 2.539 8.271 2.284 8.111 1.803 Z"
            fill="#d9d9d9"
            stroke="#ffffff"
            stroke-width="3.66663"/>
    </g>
    <g id="group_2">
        <path
            id="path_2"
            clip-path="url(#clip_path_2)"
            d="M 13.095 1.578 C 13.211 1.084 13.707 0.774 14.188 0.934 C 14.88 1.165 15.545 1.47 16.171 1.844 C 16.607 2.104 16.695 2.683 16.397 3.093 C 16.098 3.503 15.526 3.588 15.085 3.337 C 14.664 3.097 14.222 2.894 13.766 2.732 C 13.288 2.561 12.979 2.072 13.095 1.578 Z"
            fill="#d9d9d9"
            stroke="#ffffff"
            stroke-width="3.66663"/>
    </g>
    <g id="group_3">
        <path
            id="path_3"
            clip-path="url(#clip_path_3)"
            d="M 17.387 3.927 C 17.74 3.564 18.325 3.553 18.656 3.938 C 19.287 4.675 19.809 5.499 20.205 6.385 C 20.412 6.848 20.152 7.373 19.672 7.537 C 19.192 7.701 18.675 7.442 18.458 6.983 C 18.168 6.366 17.802 5.788 17.368 5.262 C 17.046 4.87 17.033 4.291 17.387 3.927 Z"
            fill="#d9d9d9"
            stroke="#ffffff"
            stroke-width="3.66663"/>
    </g>
    <path
        id="path_4"
        d="M 20.167 4.084 L 20.167 7.75"
        fill="#00000000"
        stroke="#ffffff"
        stroke-width="1.83331"
        stroke-linecap="round"/>
    <path
        id="path_5"
        d="M 16.5 7.75 L 20.167 7.75"
        fill="#00000000"
        stroke="#ffffff"
        stroke-width="1.83331"
        stroke-linecap="round"/>
    <path
        id="path_6"
        d="M 13.75 6.649 C 13.75 6.246 13.421 5.917 13.019 5.917 L 8.065 5.917 C 7.663 5.917 7.334 6.246 7.334 6.649 C 7.334 7.051 7.663 7.38 8.065 7.38 L 9.477 7.38 C 9.975 7.38 10.414 7.673 10.663 8.039 L 8.065 8.039 C 7.663 8.039 7.334 8.368 7.334 8.77 C 7.334 9.173 7.663 9.502 8.065 9.502 L 10.663 9.502 C 10.604 9.648 10.538 9.678 10.465 9.758 C 10.202 10.021 9.85 10.168 9.477 10.16 L 8.065 10.16 C 7.656 10.168 7.326 10.512 7.334 10.921 C 7.341 11.119 7.421 11.309 7.56 11.441 L 11.102 14.792 C 11.394 15.07 11.855 15.055 12.133 14.762 C 12.411 14.47 12.397 14.009 12.104 13.731 L 9.88 11.624 C 10.494 11.536 11.065 11.251 11.504 10.804 C 11.87 10.446 12.126 10 12.243 9.502 L 13.019 9.502 C 13.421 9.502 13.75 9.173 13.75 8.77 C 13.75 8.368 13.421 8.039 13.019 8.039 L 12.243 8.039 C 12.177 7.812 12.089 7.592 11.972 7.38 L 13.019 7.38 C 13.428 7.38 13.75 7.051 13.75 6.649 Z"
        fill="#ffffff"/>
</svg>
