<svg
    xmlns="http://www.w3.org/2000/svg"
    viewBox="0 0 24 25"
    id="vector">
    <path
        id="path"
        d="M 3 10.5 L 18 10.5"
        fill="none"
        stroke="#ffffff"
        stroke-width="2"/>
    <path
        id="path_1"
        d="M 7 2.5 L 7 6.5"
        fill="none"
        stroke="#ffffff"
        stroke-width="2"
        stroke-linecap="round"/>
    <path
        id="path_2"
        d="M 13 2.5 L 13 6.5"
        fill="none"
        stroke="#ffffff"
        stroke-width="2"
        stroke-linecap="round"/>
    <path
        id="path_3"
        d="M 6 15.5 C 6.552 15.5 7 15.052 7 14.5 C 7 13.948 6.552 13.5 6 13.5 C 5.448 13.5 5 13.948 5 14.5 C 5 15.052 5.448 15.5 6 15.5 Z"
        fill="#ffffff"/>
    <path
        id="path_4"
        d="M 10 15.5 C 10.552 15.5 11 15.052 11 14.5 C 11 13.948 10.552 13.5 10 13.5 C 9.448 13.5 9 13.948 9 14.5 C 9 15.052 9.448 15.5 10 15.5 Z"
        fill="#ffffff"/>
    <path
        id="path_5"
        d="M 6 19.5 C 6.552 19.5 7 19.052 7 18.5 C 7 17.948 6.552 17.5 6 17.5 C 5.448 17.5 5 17.948 5 18.5 C 5 19.052 5.448 19.5 6 19.5 Z"
        fill="#ffffff"/>
    <path
        id="path_6"
        d="M 10 19.5 C 10.552 19.5 11 19.052 11 18.5 C 11 17.948 10.552 17.5 10 17.5 C 9.448 17.5 9 17.948 9 18.5 C 9 19.052 9.448 19.5 10 19.5 Z"
        fill="#ffffff"/>
    <path
        id="path_7"
        d="M 6 5.5 L 14 5.5 C 15.657 5.5 17 6.843 17 8.5 L 17 10.5 L 19 10.5 L 19 8.5 C 19 5.739 16.761 3.5 14 3.5 L 6 3.5 C 3.239 3.5 1 5.739 1 8.5 L 1 18.5 C 1 21.261 3.239 23.5 6 23.5 L 10 23.5 L 10 21.5 L 6 21.5 C 4.343 21.5 3 20.157 3 18.5 L 3 8.5 C 3 6.843 4.343 5.5 6 5.5 Z"
        fill="#ffffff"
        fill-rule="evenodd"/>
    <path
        id="path_8"
        d="M 15.754 17.5 L 20.246 17.5 L 21.674 22.5 L 14.326 22.5 L 15.754 17.5 Z"
        fill="none"
        stroke="#ffffff"
        stroke-width="2"/>
    <path
        id="path_9"
        d="M 18 11.5 C 18.552 11.5 19 11.052 19 10.5 C 19 9.948 18.552 9.5 18 9.5 C 17.448 9.5 17 9.948 17 10.5 C 17 11.052 17.448 11.5 18 11.5 Z"
        fill="#ffffff"/>
    <path
        id="path_10"
        d="M 10 23.5 C 10.552 23.5 11 23.052 11 22.5 C 11 21.948 10.552 21.5 10 21.5 C 9.448 21.5 9 21.948 9 22.5 C 9 23.052 9.448 23.5 10 23.5 Z"
        fill="#ffffff"/>
    <path
        id="path_11"
        d="M 21.936 14.739 C 21.953 14.674 22.047 14.674 22.064 14.739 L 22.212 15.288 L 22.761 15.436 C 22.827 15.454 22.827 15.547 22.761 15.565 L 22.212 15.712 L 22.064 16.261 C 22.047 16.327 21.953 16.327 21.936 16.261 L 21.788 15.712 L 21.239 15.565 C 21.173 15.547 21.173 15.454 21.239 15.436 L 21.788 15.288 L 21.936 14.739 Z"
        fill="#ffffff"/>
    <path
        id="path_12"
        d="M 21.936 14.739 C 21.953 14.674 22.047 14.674 22.064 14.739 L 22.212 15.288 L 22.761 15.436 C 22.827 15.454 22.827 15.547 22.761 15.565 L 22.212 15.712 L 22.064 16.261 C 22.047 16.327 21.953 16.327 21.936 16.261 L 21.788 15.712 L 21.239 15.565 C 21.173 15.547 21.173 15.454 21.239 15.436 L 21.788 15.288 L 21.936 14.739 Z"
        fill="#ffffff"/>
    <path
        id="path_13"
        d="M 20.247 12.819 C 20.271 12.731 20.396 12.731 20.419 12.819 L 20.616 13.55 L 21.348 13.747 C 21.436 13.771 21.436 13.896 21.348 13.919 L 20.616 14.116 L 20.419 14.848 C 20.396 14.935 20.271 14.935 20.247 14.848 L 20.05 14.116 L 19.319 13.919 C 19.231 13.896 19.231 13.771 19.319 13.747 L 20.05 13.55 L 20.247 12.819 Z"
        fill="#ffffff"/>
    <path
        id="path_14"
        d="M 20.247 12.819 C 20.271 12.731 20.396 12.731 20.419 12.819 L 20.616 13.55 L 21.348 13.747 C 21.436 13.771 21.436 13.896 21.348 13.919 L 20.616 14.116 L 20.419 14.848 C 20.396 14.935 20.271 14.935 20.247 14.848 L 20.05 14.116 L 19.319 13.919 C 19.231 13.896 19.231 13.771 19.319 13.747 L 20.05 13.55 L 20.247 12.819 Z"
        fill="#ffffff"/>
</svg>
