<svg width="70" height="16" viewBox="0 0 70 16" fill="none" xmlns="http://www.w3.org/2000/svg">
<g clip-path="url(#clip0_3426_7204)">
<circle cx="8.0013" cy="8" r="6.33333" stroke="#EBB46A" stroke-width="2"/>
<path d="M10 6C10 5.63181 9.70152 5.33333 9.33333 5.33333C8.96514 5.33333 8.66667 5.63181 8.66667 6V10C8.66667 10.3682 8.96514 10.6667 9.33333 10.6667C9.70152 10.6667 10 10.3682 10 10V6Z" fill="#EBB46A"/>
<path d="M7.33203 6C7.33203 5.63181 7.03355 5.33333 6.66536 5.33333C6.29717 5.33333 5.9987 5.63181 5.9987 6V10C5.9987 10.3682 6.29717 10.6667 6.66536 10.6667C7.03355 10.6667 7.33203 10.3682 7.33203 10V6Z" fill="#EBB46A"/>
</g>
<path d="M25.4929 5.78267C25.4588 5.43892 25.3125 5.17187 25.054 4.98153C24.7955 4.79119 24.4446 4.69602 24.0014 4.69602C23.7003 4.69602 23.446 4.73864 23.2386 4.82386C23.0313 4.90625 22.8722 5.02131 22.7614 5.16903C22.6534 5.31676 22.5994 5.48438 22.5994 5.67188C22.5938 5.82812 22.6264 5.96449 22.6974 6.08097C22.7713 6.19744 22.8722 6.2983 23 6.38352C23.1278 6.46591 23.2756 6.53835 23.4432 6.60085C23.6108 6.66051 23.7898 6.71165 23.9801 6.75426L24.7642 6.94176C25.1449 7.02699 25.4943 7.14062 25.8125 7.28267C26.1307 7.42472 26.4063 7.59943 26.6392 7.80682C26.8722 8.0142 27.0526 8.25852 27.1804 8.53977C27.3111 8.82102 27.3778 9.14347 27.3807 9.5071C27.3778 10.0412 27.2415 10.5043 26.9716 10.8963C26.7045 11.2855 26.3182 11.5881 25.8125 11.804C25.3097 12.017 24.7031 12.1236 23.9929 12.1236C23.2884 12.1236 22.6747 12.0156 22.152 11.7997C21.6321 11.5838 21.2259 11.2642 20.9332 10.8409C20.6435 10.4148 20.4915 9.88778 20.4773 9.25994H22.2628C22.2827 9.55256 22.3665 9.79687 22.5142 9.9929C22.6648 10.1861 22.8651 10.3324 23.1151 10.4318C23.3679 10.5284 23.6534 10.5767 23.9716 10.5767C24.2841 10.5767 24.5554 10.5312 24.7855 10.4403C25.0185 10.3494 25.1989 10.223 25.3267 10.0611C25.4545 9.89915 25.5185 9.71307 25.5185 9.50284C25.5185 9.30682 25.4602 9.14205 25.3438 9.00852C25.2301 8.875 25.0625 8.76136 24.8409 8.66761C24.6222 8.57386 24.3537 8.48864 24.0355 8.41193L23.0852 8.1733C22.3494 7.99432 21.7685 7.71449 21.3423 7.33381C20.9162 6.95312 20.7045 6.44034 20.7074 5.79545C20.7045 5.26705 20.8452 4.8054 21.1293 4.41051C21.4162 4.01562 21.8097 3.70739 22.3097 3.4858C22.8097 3.2642 23.3778 3.15341 24.0142 3.15341C24.6619 3.15341 25.2273 3.2642 25.7102 3.4858C26.196 3.70739 26.5739 4.01562 26.8438 4.41051C27.1136 4.8054 27.2528 5.26278 27.2614 5.78267H25.4929ZM32.0692 5.45455V6.81818H28.1275V5.45455H32.0692ZM29.0224 3.88636H30.8377V9.98864C30.8377 10.1562 30.8633 10.2869 30.9144 10.3807C30.9656 10.4716 31.0366 10.5355 31.1275 10.5724C31.2212 10.6094 31.3292 10.6278 31.4513 10.6278C31.5366 10.6278 31.6218 10.6207 31.707 10.6065C31.7923 10.5895 31.8576 10.5767 31.9031 10.5682L32.1886 11.919C32.0977 11.9474 31.9698 11.9801 31.805 12.017C31.6403 12.0568 31.44 12.081 31.2042 12.0895C30.7667 12.1065 30.3832 12.0483 30.0536 11.9148C29.7269 11.7812 29.4727 11.5739 29.2908 11.2926C29.109 11.0114 29.0195 10.6562 29.0224 10.2273V3.88636ZM36.1388 12.1278C35.4769 12.1278 34.9045 11.9872 34.4215 11.706C33.9414 11.4219 33.5707 11.027 33.3093 10.5213C33.0479 10.0128 32.9173 9.4233 32.9173 8.75284C32.9173 8.0767 33.0479 7.4858 33.3093 6.98011C33.5707 6.47159 33.9414 6.0767 34.4215 5.79545C34.9045 5.51136 35.4769 5.36932 36.1388 5.36932C36.8008 5.36932 37.3718 5.51136 37.8519 5.79545C38.3349 6.0767 38.707 6.47159 38.9684 6.98011C39.2298 7.4858 39.3604 8.0767 39.3604 8.75284C39.3604 9.4233 39.2298 10.0128 38.9684 10.5213C38.707 11.027 38.3349 11.4219 37.8519 11.706C37.3718 11.9872 36.8008 12.1278 36.1388 12.1278ZM36.1474 10.7216C36.4485 10.7216 36.6999 10.6364 36.9016 10.4659C37.1033 10.2926 37.2553 10.0568 37.3576 9.75852C37.4627 9.46023 37.5153 9.12074 37.5153 8.74006C37.5153 8.35938 37.4627 8.01989 37.3576 7.72159C37.2553 7.4233 37.1033 7.1875 36.9016 7.0142C36.6999 6.84091 36.4485 6.75426 36.1474 6.75426C35.8434 6.75426 35.5877 6.84091 35.3803 7.0142C35.1758 7.1875 35.021 7.4233 34.9158 7.72159C34.8136 8.01989 34.7624 8.35938 34.7624 8.74006C34.7624 9.12074 34.8136 9.46023 34.9158 9.75852C35.021 10.0568 35.1758 10.2926 35.3803 10.4659C35.5877 10.6364 35.8434 10.7216 36.1474 10.7216ZM40.5408 14.4545V5.45455H42.3306V6.55398H42.4116C42.4911 6.37784 42.6062 6.19886 42.7567 6.01705C42.9102 5.83239 43.109 5.67898 43.3533 5.55682C43.6005 5.43182 43.9073 5.36932 44.2738 5.36932C44.7511 5.36932 45.1914 5.49432 45.5948 5.74432C45.9982 5.99148 46.3207 6.36506 46.5621 6.86506C46.8036 7.36222 46.9244 7.9858 46.9244 8.7358C46.9244 9.46591 46.8065 10.0824 46.5707 10.5852C46.3377 11.0852 46.0195 11.4645 45.6161 11.723C45.2156 11.9787 44.7667 12.1065 44.2695 12.1065C43.9173 12.1065 43.6175 12.0483 43.3704 11.9318C43.1261 11.8153 42.9258 11.669 42.7695 11.4929C42.6133 11.3139 42.494 11.1335 42.4116 10.9517H42.3562V14.4545H40.5408ZM42.3178 8.72727C42.3178 9.11648 42.3718 9.45597 42.4798 9.74574C42.5877 10.0355 42.744 10.2614 42.9485 10.4233C43.1531 10.5824 43.4016 10.6619 43.6942 10.6619C43.9897 10.6619 44.2397 10.581 44.4442 10.419C44.6488 10.2543 44.8036 10.027 44.9087 9.73722C45.0167 9.4446 45.0707 9.10795 45.0707 8.72727C45.0707 8.34943 45.0181 8.01705 44.913 7.73011C44.8079 7.44318 44.6531 7.21875 44.4485 7.05682C44.244 6.89489 43.9925 6.81392 43.6942 6.81392C43.3988 6.81392 43.1488 6.89205 42.9442 7.0483C42.7425 7.20455 42.5877 7.42614 42.4798 7.71307C42.3718 8 42.3178 8.33807 42.3178 8.72727ZM48.1346 14.4545V5.45455H49.9244V6.55398H50.0053C50.0849 6.37784 50.1999 6.19886 50.3505 6.01705C50.5039 5.83239 50.7028 5.67898 50.9471 5.55682C51.1942 5.43182 51.5011 5.36932 51.8675 5.36932C52.3448 5.36932 52.7852 5.49432 53.1886 5.74432C53.592 5.99148 53.9144 6.36506 54.1559 6.86506C54.3974 7.36222 54.5181 7.9858 54.5181 8.7358C54.5181 9.46591 54.4002 10.0824 54.1644 10.5852C53.9315 11.0852 53.6133 11.4645 53.2099 11.723C52.8093 11.9787 52.3604 12.1065 51.8633 12.1065C51.511 12.1065 51.2113 12.0483 50.9641 11.9318C50.7198 11.8153 50.5195 11.669 50.3633 11.4929C50.207 11.3139 50.0877 11.1335 50.0053 10.9517H49.9499V14.4545H48.1346ZM49.9116 8.72727C49.9116 9.11648 49.9656 9.45597 50.0735 9.74574C50.1815 10.0355 50.3377 10.2614 50.5423 10.4233C50.7468 10.5824 50.9954 10.6619 51.288 10.6619C51.5835 10.6619 51.8335 10.581 52.038 10.419C52.2425 10.2543 52.3974 10.027 52.5025 9.73722C52.6104 9.4446 52.6644 9.10795 52.6644 8.72727C52.6644 8.34943 52.6119 8.01705 52.5067 7.73011C52.4016 7.44318 52.2468 7.21875 52.0423 7.05682C51.8377 6.89489 51.5863 6.81392 51.288 6.81392C50.9925 6.81392 50.7425 6.89205 50.538 7.0483C50.3363 7.20455 50.1815 7.42614 50.0735 7.71307C49.9656 8 49.9116 8.33807 49.9116 8.72727ZM58.7113 12.1278C58.038 12.1278 57.4585 11.9915 56.9727 11.7188C56.4897 11.4432 56.1175 11.054 55.8562 10.5511C55.5948 10.0455 55.4641 9.44744 55.4641 8.7571C55.4641 8.08381 55.5948 7.4929 55.8562 6.98438C56.1175 6.47585 56.4854 6.07955 56.9599 5.79545C57.4371 5.51136 57.9968 5.36932 58.6388 5.36932C59.0707 5.36932 59.4727 5.43892 59.8448 5.57812C60.2198 5.71449 60.5465 5.92045 60.8249 6.19602C61.1062 6.47159 61.3249 6.81818 61.4812 7.2358C61.6374 7.65057 61.7156 8.13636 61.7156 8.69318V9.19176H56.1886V8.06676H60.0067C60.0067 7.8054 59.9499 7.57386 59.8363 7.37216C59.7227 7.17045 59.565 7.01278 59.3633 6.89915C59.1644 6.78267 58.9329 6.72443 58.6687 6.72443C58.3931 6.72443 58.1488 6.78835 57.9357 6.91619C57.7255 7.04119 57.5607 7.21023 57.4414 7.4233C57.3221 7.63352 57.261 7.8679 57.2582 8.12642V9.19602C57.2582 9.51989 57.3178 9.79972 57.4371 10.0355C57.5593 10.2713 57.7312 10.4531 57.9528 10.581C58.1744 10.7088 58.4371 10.7727 58.7411 10.7727C58.9428 10.7727 59.1275 10.7443 59.2951 10.6875C59.4627 10.6307 59.6062 10.5455 59.7255 10.4318C59.8448 10.3182 59.9357 10.179 59.9982 10.0142L61.6772 10.125C61.592 10.5284 61.4173 10.8807 61.1531 11.1818C60.8917 11.4801 60.5536 11.7131 60.1388 11.8807C59.7269 12.0455 59.2511 12.1278 58.7113 12.1278ZM65.3121 12.1065C64.815 12.1065 64.3647 11.9787 63.9613 11.723C63.5607 11.4645 63.2425 11.0852 63.0067 10.5852C62.7738 10.0824 62.6573 9.46591 62.6573 8.7358C62.6573 7.9858 62.7781 7.36222 63.0195 6.86506C63.261 6.36506 63.582 5.99148 63.9826 5.74432C64.386 5.49432 64.8278 5.36932 65.3079 5.36932C65.6744 5.36932 65.9798 5.43182 66.2241 5.55682C66.4712 5.67898 66.6701 5.83239 66.8207 6.01705C66.9741 6.19886 67.0906 6.37784 67.1701 6.55398H67.2255V3.27273H69.0366V12H67.2468V10.9517H67.1701C67.0849 11.1335 66.9641 11.3139 66.8079 11.4929C66.6545 11.669 66.4542 11.8153 66.207 11.9318C65.9627 12.0483 65.6644 12.1065 65.3121 12.1065ZM65.8874 10.6619C66.18 10.6619 66.4272 10.5824 66.6289 10.4233C66.8335 10.2614 66.9897 10.0355 67.0977 9.74574C67.2085 9.45597 67.2638 9.11648 67.2638 8.72727C67.2638 8.33807 67.2099 8 67.1019 7.71307C66.994 7.42614 66.8377 7.20455 66.6332 7.0483C66.4286 6.89205 66.18 6.81392 65.8874 6.81392C65.5891 6.81392 65.3377 6.89489 65.1332 7.05682C64.9286 7.21875 64.7738 7.44318 64.6687 7.73011C64.5636 8.01705 64.511 8.34943 64.511 8.72727C64.511 9.10795 64.5636 9.4446 64.6687 9.73722C64.7766 10.027 64.9315 10.2543 65.1332 10.419C65.3377 10.581 65.5891 10.6619 65.8874 10.6619Z" fill="#EBB46A"/>
<defs>
<clipPath id="clip0_3426_7204">
<rect width="16" height="16" fill="white"/>
</clipPath>
</defs>
</svg>
