<svg width="76" height="24" viewBox="0 0 76 24" fill="none" xmlns="http://www.w3.org/2000/svg">
<rect width="76" height="24" rx="4" fill="#EBB46A" fill-opacity="0.1"/>
<g clip-path="url(#clip0_4168_53862)">
<circle cx="14" cy="12" r="4.5" stroke="#EBB46A" stroke-width="2"/>
<path d="M15.5 10.5C15.5 10.2239 15.2761 10 15 10C14.7239 10 14.5 10.2239 14.5 10.5V13.5C14.5 13.7761 14.7239 14 15 14C15.2761 14 15.5 13.7761 15.5 13.5V10.5Z" fill="#EBB46A"/>
<path d="M13.5 10.5C13.5 10.2239 13.2761 10 13 10C12.7239 10 12.5 10.2239 12.5 10.5V13.5C12.5 13.7761 12.7239 14 13 14C13.2761 14 13.5 13.7761 13.5 13.5V10.5Z" fill="#EBB46A"/>
</g>
<path d="M24.7585 16V7.27273H28.2017C28.8636 7.27273 29.4276 7.39915 29.8935 7.65199C30.3594 7.90199 30.7145 8.25 30.9588 8.69602C31.206 9.1392 31.3295 9.65057 31.3295 10.2301C31.3295 10.8097 31.2045 11.321 30.9545 11.7642C30.7045 12.2074 30.3423 12.5526 29.8679 12.7997C29.3963 13.0469 28.8253 13.1705 28.1548 13.1705H25.9602V11.6918H27.8565C28.2116 11.6918 28.5043 11.6307 28.7344 11.5085C28.9673 11.3835 29.1406 11.2116 29.2543 10.9929C29.3707 10.7713 29.429 10.517 29.429 10.2301C29.429 9.94034 29.3707 9.6875 29.2543 9.47159C29.1406 9.25284 28.9673 9.08381 28.7344 8.96449C28.5014 8.84233 28.206 8.78125 27.848 8.78125H26.6037V16H24.7585ZM34.1847 16.1236C33.767 16.1236 33.3949 16.0511 33.0682 15.9062C32.7415 15.7585 32.483 15.5412 32.2926 15.2543C32.1051 14.9645 32.0114 14.6037 32.0114 14.1719C32.0114 13.8082 32.0781 13.5028 32.2116 13.2557C32.3452 13.0085 32.527 12.8097 32.7571 12.6591C32.9872 12.5085 33.2486 12.3949 33.5412 12.3182C33.8366 12.2415 34.1463 12.1875 34.4702 12.1562C34.8509 12.1165 35.1577 12.0795 35.3906 12.0455C35.6236 12.0085 35.7926 11.9545 35.8977 11.8835C36.0028 11.8125 36.0554 11.7074 36.0554 11.5682V11.5426C36.0554 11.2727 35.9702 11.0639 35.7997 10.9162C35.6321 10.7685 35.3935 10.6946 35.0838 10.6946C34.7571 10.6946 34.4972 10.767 34.304 10.9119C34.1108 11.054 33.983 11.233 33.9205 11.4489L32.2415 11.3125C32.3267 10.9148 32.4943 10.571 32.7443 10.2812C32.9943 9.98864 33.3168 9.7642 33.7116 9.60795C34.1094 9.44886 34.5696 9.36932 35.0923 9.36932C35.456 9.36932 35.804 9.41193 36.1364 9.49716C36.4716 9.58239 36.7685 9.71449 37.027 9.89347C37.2884 10.0724 37.4943 10.3026 37.6449 10.5838C37.7955 10.8622 37.8707 11.196 37.8707 11.5852V16H36.1491V15.0923H36.098C35.9929 15.2969 35.8523 15.4773 35.6761 15.6335C35.5 15.7869 35.2884 15.9077 35.0412 15.9957C34.794 16.081 34.5085 16.1236 34.1847 16.1236ZM34.7045 14.8707C34.9716 14.8707 35.2074 14.8182 35.4119 14.7131C35.6165 14.6051 35.777 14.4602 35.8935 14.2784C36.0099 14.0966 36.0682 13.8906 36.0682 13.6605V12.9659C36.0114 13.0028 35.9332 13.0369 35.8338 13.0682C35.7372 13.0966 35.6278 13.1236 35.5057 13.1491C35.3835 13.1719 35.2614 13.1932 35.1392 13.2131C35.017 13.2301 34.9062 13.2457 34.8068 13.2599C34.5938 13.2912 34.4077 13.3409 34.2486 13.4091C34.0895 13.4773 33.9659 13.5696 33.8778 13.6861C33.7898 13.7997 33.7457 13.9418 33.7457 14.1122C33.7457 14.3594 33.8352 14.5483 34.0142 14.679C34.196 14.8068 34.4261 14.8707 34.7045 14.8707ZM43.4766 13.2131V9.45455H45.2919V16H43.549V14.8111H43.4808C43.3331 15.1946 43.0874 15.5028 42.7436 15.7358C42.4027 15.9687 41.9865 16.0852 41.495 16.0852C41.0575 16.0852 40.6726 15.9858 40.3402 15.7869C40.0078 15.5881 39.7479 15.3054 39.5604 14.9389C39.3757 14.5724 39.282 14.1335 39.2791 13.6222V9.45455H41.0945V13.2983C41.0973 13.6847 41.201 13.9901 41.4055 14.2145C41.6101 14.4389 41.8842 14.5511 42.228 14.5511C42.4467 14.5511 42.6513 14.5014 42.8416 14.402C43.032 14.2997 43.1854 14.1491 43.3018 13.9503C43.4212 13.7514 43.4794 13.5057 43.4766 13.2131ZM52.19 11.321L50.5281 11.4233C50.4996 11.2812 50.4386 11.1534 50.3448 11.0398C50.2511 10.9233 50.1275 10.831 49.9741 10.7628C49.8235 10.6918 49.6431 10.6562 49.4329 10.6562C49.1516 10.6562 48.9144 10.7159 48.7212 10.8352C48.5281 10.9517 48.4315 11.108 48.4315 11.304C48.4315 11.4602 48.494 11.5923 48.619 11.7003C48.744 11.8082 48.9585 11.8949 49.2624 11.9602L50.4471 12.1989C51.0835 12.3295 51.5579 12.5398 51.8704 12.8295C52.1829 13.1193 52.3391 13.5 52.3391 13.9716C52.3391 14.4006 52.2127 14.777 51.9599 15.1009C51.7099 15.4247 51.3661 15.6776 50.9286 15.8594C50.494 16.0384 49.9925 16.1278 49.4244 16.1278C48.5579 16.1278 47.8675 15.9474 47.3533 15.5866C46.842 15.223 46.5423 14.7287 46.4542 14.1037L48.2397 14.0099C48.2937 14.2741 48.4244 14.4759 48.6317 14.6151C48.8391 14.7514 49.1048 14.8196 49.4286 14.8196C49.7468 14.8196 50.0025 14.7585 50.1957 14.6364C50.3917 14.5114 50.4911 14.3509 50.494 14.1548C50.4911 13.9901 50.4215 13.8551 50.2852 13.75C50.1488 13.642 49.9386 13.5597 49.6545 13.5028L48.521 13.277C47.8817 13.1491 47.4059 12.9276 47.0934 12.6122C46.7837 12.2969 46.6289 11.8949 46.6289 11.4062C46.6289 10.9858 46.7425 10.6236 46.9698 10.3196C47.1999 10.0156 47.5224 9.78125 47.9371 9.61648C48.3548 9.4517 48.8434 9.36932 49.4031 9.36932C50.2298 9.36932 50.8803 9.54403 51.3548 9.89347C51.832 10.2429 52.1104 10.7187 52.19 11.321ZM56.4652 16.1278C55.7919 16.1278 55.2124 15.9915 54.7266 15.7188C54.2436 15.4432 53.8714 15.054 53.6101 14.5511C53.3487 14.0455 53.218 13.4474 53.218 12.7571C53.218 12.0838 53.3487 11.4929 53.6101 10.9844C53.8714 10.4759 54.2393 10.0795 54.7138 9.79545C55.1911 9.51136 55.7507 9.36932 56.3928 9.36932C56.8246 9.36932 57.2266 9.43892 57.5987 9.57812C57.9737 9.71449 58.3004 9.92045 58.5788 10.196C58.8601 10.4716 59.0788 10.8182 59.2351 11.2358C59.3913 11.6506 59.4695 12.1364 59.4695 12.6932V13.1918H53.9425V12.0668H57.7607C57.7607 11.8054 57.7038 11.5739 57.5902 11.3722C57.4766 11.1705 57.3189 11.0128 57.1172 10.8991C56.9183 10.7827 56.6868 10.7244 56.4226 10.7244C56.147 10.7244 55.9027 10.7884 55.6896 10.9162C55.4794 11.0412 55.3146 11.2102 55.1953 11.4233C55.076 11.6335 55.0149 11.8679 55.0121 12.1264V13.196C55.0121 13.5199 55.0717 13.7997 55.1911 14.0355C55.3132 14.2713 55.4851 14.4531 55.7067 14.581C55.9283 14.7088 56.1911 14.7727 56.495 14.7727C56.6967 14.7727 56.8814 14.7443 57.049 14.6875C57.2166 14.6307 57.3601 14.5455 57.4794 14.4318C57.5987 14.3182 57.6896 14.179 57.7521 14.0142L59.4311 14.125C59.3459 14.5284 59.1712 14.8807 58.907 15.1818C58.6456 15.4801 58.3075 15.7131 57.8928 15.8807C57.4808 16.0455 57.005 16.1278 56.4652 16.1278ZM63.0661 16.1065C62.5689 16.1065 62.1186 15.9787 61.7152 15.723C61.3146 15.4645 60.9964 15.0852 60.7607 14.5852C60.5277 14.0824 60.4112 13.4659 60.4112 12.7358C60.4112 11.9858 60.532 11.3622 60.7734 10.8651C61.0149 10.3651 61.3359 9.99148 61.7365 9.74432C62.1399 9.49432 62.5817 9.36932 63.0618 9.36932C63.4283 9.36932 63.7337 9.43182 63.978 9.55682C64.2251 9.67898 64.424 9.83239 64.5746 10.017C64.728 10.1989 64.8445 10.3778 64.924 10.554H64.9794V7.27273H66.7905V16H65.0007V14.9517H64.924C64.8388 15.1335 64.718 15.3139 64.5618 15.4929C64.4084 15.669 64.2081 15.8153 63.9609 15.9318C63.7166 16.0483 63.4183 16.1065 63.0661 16.1065ZM63.6413 14.6619C63.9339 14.6619 64.1811 14.5824 64.3828 14.4233C64.5874 14.2614 64.7436 14.0355 64.8516 13.7457C64.9624 13.456 65.0178 13.1165 65.0178 12.7273C65.0178 12.3381 64.9638 12 64.8558 11.7131C64.7479 11.4261 64.5916 11.2045 64.3871 11.0483C64.1825 10.892 63.9339 10.8139 63.6413 10.8139C63.343 10.8139 63.0916 10.8949 62.8871 11.0568C62.6825 11.2187 62.5277 11.4432 62.4226 11.7301C62.3175 12.017 62.2649 12.3494 62.2649 12.7273C62.2649 13.108 62.3175 13.4446 62.4226 13.7372C62.5305 14.027 62.6854 14.2543 62.8871 14.419C63.0916 14.581 63.343 14.6619 63.6413 14.6619Z" fill="#EBB46A"/>
<defs>
<clipPath id="clip0_4168_53862">
<rect width="12" height="12" fill="white" transform="translate(8 6)"/>
</clipPath>
</defs>
</svg>
