<svg
    xmlns="http://www.w3.org/2000/svg"
    viewBox="0 0 24 24"
    id="vector">
    <path
        id="path"
        d="M 7.36 14.252 L 7.832 12.912 L 8.305 14.252 L 7.36 14.252 Z M 8.195 11.627 C 8.141 11.473 7.996 11.37 7.832 11.37 C 7.669 11.37 7.524 11.473 7.47 11.627 L 5.984 15.842 C 5.914 16.042 6.019 16.262 6.219 16.332 C 6.261 16.347 6.305 16.354 6.347 16.354 C 6.506 16.354 6.654 16.256 6.71 16.098 L 7.089 15.021 L 8.576 15.021 L 8.955 16.097 C 9.026 16.298 9.245 16.403 9.446 16.332 C 9.646 16.262 9.751 16.042 9.681 15.842 L 8.195 11.627 Z"
        fill="#ffffff"/>
    <path
        id="path_1"
        d="M 12.91 16.503 C 12.91 17.061 12.455 17.516 11.896 17.516 L 5.955 17.516 C 5.862 17.516 5.773 17.549 5.703 17.61 L 4.181 18.924 L 4.181 17.901 C 4.181 17.688 4.008 17.516 3.796 17.516 L 3.783 17.516 C 3.224 17.516 2.769 17.061 2.769 16.503 L 2.769 11.191 C 2.769 10.632 3.224 10.177 3.783 10.177 L 11.896 10.177 C 12.455 10.177 12.91 10.632 12.91 11.191 L 12.91 16.503 Z M 11.896 9.408 L 3.783 9.408 C 2.8 9.408 2 10.208 2 11.191 L 2 16.503 C 2 17.358 2.606 18.075 3.411 18.247 L 3.411 19.765 C 3.411 19.915 3.499 20.052 3.636 20.114 C 3.687 20.138 3.742 20.149 3.796 20.149 C 3.886 20.149 3.976 20.117 4.047 20.056 L 6.098 18.285 L 11.896 18.285 C 12.879 18.285 13.679 17.486 13.679 16.503 L 13.679 11.191 C 13.679 10.208 12.879 9.408 11.896 9.408 Z"
        fill="#ffffff"
        stroke="#ffffff"
        stroke-width="0.533333"/>
    <path
        id="path_2"
        d="M 20.217 3.851 L 12.104 3.851 C 11.121 3.851 10.321 4.65 10.321 5.633 L 10.321 8.254 C 10.321 8.466 10.493 8.639 10.706 8.639 C 10.918 8.639 11.09 8.466 11.09 8.254 L 11.09 5.633 C 11.09 5.075 11.545 4.62 12.104 4.62 L 20.217 4.62 C 20.776 4.62 21.231 5.075 21.231 5.633 L 21.231 10.945 C 21.231 11.504 20.776 11.959 20.217 11.959 L 20.204 11.959 C 19.992 11.959 19.82 12.131 19.82 12.344 L 19.82 13.367 L 18.297 12.053 C 18.227 11.992 18.138 11.959 18.045 11.959 L 14.833 11.959 C 14.62 11.959 14.448 12.131 14.448 12.344 C 14.448 12.556 14.62 12.728 14.833 12.728 L 17.902 12.728 L 19.953 14.499 C 20.024 14.56 20.114 14.592 20.204 14.592 C 20.258 14.592 20.313 14.581 20.364 14.557 C 20.501 14.495 20.589 14.358 20.589 14.207 L 20.589 12.689 C 21.394 12.518 22 11.801 22 10.945 L 22 5.633 C 22 4.65 21.2 3.851 20.217 3.851 Z"
        fill="#ffffff"/>
    <path
        id="path_3"
        d="M 20.217 3.851 L 12.104 3.851 C 11.121 3.851 10.321 4.65 10.321 5.633 L 10.321 8.254 C 10.321 8.466 10.493 8.639 10.706 8.639 C 10.918 8.639 11.09 8.466 11.09 8.254 L 11.09 5.633 C 11.09 5.075 11.545 4.62 12.104 4.62 L 20.217 4.62 C 20.776 4.62 21.231 5.075 21.231 5.633 L 21.231 10.945 C 21.231 11.504 20.776 11.959 20.217 11.959 L 20.204 11.959 C 19.992 11.959 19.82 12.131 19.82 12.344 L 19.82 13.367 L 18.297 12.053 C 18.227 11.992 18.138 11.959 18.045 11.959 L 14.833 11.959 C 14.62 11.959 14.448 12.131 14.448 12.344 C 14.448 12.556 14.62 12.728 14.833 12.728 L 17.902 12.728 L 19.953 14.499 C 20.024 14.56 20.114 14.592 20.204 14.592 C 20.258 14.592 20.313 14.581 20.364 14.557 C 20.501 14.495 20.589 14.358 20.589 14.207 L 20.589 12.689 C 21.394 12.518 22 11.801 22 10.945 L 22 5.633 C 22 4.65 21.2 3.851 20.217 3.851"
        fill="#00000000"
        stroke="#ffffff"
        stroke-width="0.533333"/>
    <path
        id="path_4"
        d="M 15.643 7.76 L 15.368 7.76 L 15.368 8.271 L 15.643 8.271 C 16.045 8.271 16.279 8.421 16.4 8.62 L 16.4 8.643 L 16.413 8.643 C 16.466 8.74 16.487 8.848 16.487 8.95 C 16.487 9.352 16.192 9.629 15.716 9.629 C 15.234 9.629 14.906 9.334 14.906 8.938 L 14.25 8.938 C 14.25 9.671 14.866 10.17 15.763 10.17 C 16.58 10.17 17.13 9.713 17.13 9.01 C 17.13 8.89 17.109 8.764 17.063 8.643 L 17.987 8.649 L 17.987 10.5 L 18.683 10.5 L 18.683 6.583 L 19.5 6.583 L 19.5 6.054 L 17.987 6.054 L 17.987 8.127 L 16.614 8.127 C 16.513 8.073 16.4 8.031 16.266 8.007 L 16.266 7.995 C 16.781 7.869 17.049 7.52 17.049 7.075 C 17.049 6.421 16.5 6 15.703 6 C 14.88 6 14.297 6.445 14.297 7.141 L 14.946 7.141 C 14.946 6.769 15.281 6.535 15.703 6.535 C 16.098 6.535 16.42 6.769 16.42 7.16 C 16.42 7.466 16.159 7.76 15.643 7.76 Z"
        fill="#ffffff"/>
</svg>
