<svg width="16" height="16" viewBox="0 0 16 16" fill="none" xmlns="http://www.w3.org/2000/svg">
<path d="M16 8C16 12.4183 12.4183 16 8 16C3.58172 16 0 12.4183 0 8C0 3.58172 3.58172 0 8 0C12.4183 0 16 3.58172 16 8Z" fill="#EBB46A"/>
<path d="M5.5 5H10.5V5.5C10.5 6.88071 9.38071 8 8 8C6.61929 8 5.5 6.88071 5.5 5.5V5Z" fill="white"/>
<path d="M10.5 11H5.5V10.5C5.5 9.11929 6.61929 8 8 8C9.38071 8 10.5 9.11929 10.5 10.5V11Z" fill="white"/>
<rect x="7.5" y="6" width="1" height="3" fill="white"/>
<rect x="4.5" y="11" width="7" height="1" rx="0.5" fill="white"/>
<rect x="4.5" y="4" width="7" height="1" rx="0.5" fill="white"/>
</svg>
