<svg
    xmlns="http://www.w3.org/2000/svg"
    viewBox="0 0 24 24"
    id="vector">
    <path
        id="path"
        d="M 21 12 C 21 14.481 19.991 16.731 18.361 18.361 L 19.775 19.775 C 21.766 17.783 23 15.033 23 12 C 23 8.967 21.766 6.217 19.775 4.225 L 18.361 5.639 C 19.991 7.269 21 9.519 21 12 Z"
        fill="#eb6a6e"/>
    <path
        id="path_1"
        d="M 3 12 C 3 9.519 4.009 7.269 5.639 5.639 L 4.225 4.225 C 2.234 6.217 1 8.967 1 12 C 1 15.033 2.234 17.783 4.225 19.775 L 5.639 18.361 C 4.009 16.731 3 14.481 3 12 Z"
        fill="#eb6a6e"/>
    <path
        id="path_2"
        d="M 16.947 7.053 L 15.533 8.467 C 16.439 9.372 17 10.622 17 12 C 17 13.378 16.439 14.628 15.534 15.534 L 16.948 16.948 C 18.215 15.68 19 13.93 19 12 C 19 10.07 18.215 8.32 16.947 7.053 Z"
        fill="#eb6a6e"/>
    <path
        id="path_3"
        d="M 7.053 16.947 L 8.467 15.533 C 7.561 14.628 7 13.378 7 12 C 7 10.622 7.561 9.372 8.466 8.466 L 7.053 7.053 C 5.785 8.32 5 10.07 5 12 C 5 13.93 5.785 15.68 7.053 16.947 Z"
        fill="#eb6a6e"/>
    <path
        id="path_4"
        d="M 12 12 M 9 12 C 9 11.205 9.316 10.441 9.879 9.879 C 10.441 9.316 11.205 9 12 9 C 12.795 9 13.559 9.316 14.121 9.879 C 14.684 10.441 15 11.205 15 12 C 15 12.795 14.684 13.559 14.121 14.121 C 13.559 14.684 12.795 15 12 15 C 11.205 15 10.441 14.684 9.879 14.121 C 9.316 13.559 9 12.795 9 12"
        fill="#eb6a6e"/>
</svg>
